# xmcd CD database file
#
# Track frame offsets:
#	150
#	22298
#	44983
#	62107
#	82316
#	104118
#	126380
#	143034
#	161201
#	178258
#
# Disc length: 2659 seconds
#
# Revision: 0
# Processed by: cddbd v1.5.2PL0 Copyright (c) Steve Scherf et al.
# Submitted via: CDex 1.70beta2
#
DISCID=a90a610a
DTITLE=Ghost Town Cryers - Spector In The Woodshed
DYEAR=2007
DGENRE=Country
TTITLE0=Shape of Things
TTITLE1=Shoulder Angel
TTITLE2=When I Try For A Valentine
TTITLE3=Teh Monarchy
TTITLE4=Picture of Me
TTITLE5=Middle of Love
TTITLE6=Specter In The Woodshed
TTITLE7=Centrifuge
TTITLE8=Brave and Crazy
TTITLE9=Cowboy Poet's Lament
EXTD=YEAR: 2007
EXTT0=
EXTT1=
EXTT2=
EXTT3=
EXTT4=
EXTT5=
EXTT6=
EXTT7=
EXTT8=
EXTT9=
PLAYORDER=
